<svg width="315" height="273" viewBox="0 0 315 273" fill="none" xmlns="http://www.w3.org/2000/svg">
<path d="M16.9545 164.835C16.2091 166.315 14.4053 166.91 12.9256 166.165C11.4459 165.419 10.8506 163.616 11.596 162.136L16.9545 164.835ZM180.616 157.767L180.993 160.743L180.993 160.743L180.616 157.767ZM138.775 70.0808L141.019 72.0713L141.019 72.0716L138.775 70.0808ZM294.711 162.31C294.974 163.946 293.861 165.486 292.225 165.749C290.589 166.012 289.05 164.899 288.787 163.263L294.711 162.31ZM4.57049 144.037C4.15658 142.433 5.12159 140.797 6.72591 140.383C8.33022 139.969 9.96633 140.934 10.3802 142.538L4.57049 144.037ZM13.1662 165.345L13.5393 168.322C12.042 168.51 10.6383 167.556 10.2613 166.095L13.1662 165.345ZM35.8749 159.96C37.5313 159.925 38.9022 161.24 38.9368 162.896C38.9714 164.553 37.6566 165.924 36.0001 165.958L35.8749 159.96ZM14.2752 163.486C11.596 162.136 11.5966 162.135 11.5973 162.133C11.5978 162.132 11.5988 162.13 11.5998 162.128C11.6018 162.124 11.6046 162.119 11.6081 162.112C11.6151 162.098 11.625 162.079 11.6379 162.053C11.6636 162.003 11.7011 161.93 11.7502 161.835C11.8484 161.644 11.9931 161.366 12.1836 161.007C12.5645 160.288 13.1284 159.242 13.869 157.919C15.3498 155.274 17.5382 151.517 20.383 147.041C26.0678 138.098 34.3976 126.249 44.9656 114.668C65.977 91.641 96.491 68.9768 133.068 73.6762L132.303 79.6273C98.75 75.3164 70.0589 96.0691 49.3977 118.712C39.1294 129.965 31.006 141.514 25.4466 150.26C22.6694 154.629 20.538 158.289 19.1045 160.85C18.3879 162.13 17.8461 163.135 17.4855 163.816C17.3052 164.156 17.1703 164.415 17.0815 164.587C17.0371 164.673 17.0043 164.737 16.9831 164.779C16.9725 164.8 16.9648 164.815 16.96 164.824C16.9576 164.829 16.956 164.832 16.955 164.834C16.9546 164.835 16.9544 164.835 16.9542 164.836C16.9543 164.836 16.9545 164.835 14.2752 163.486ZM133.068 73.6762C169.151 78.3123 189.573 98.3216 196.93 118.127C200.583 127.962 201.043 137.857 198.397 145.722C195.718 153.683 189.783 159.628 180.993 160.743L180.238 154.791C186.34 154.017 190.625 150.005 192.71 143.809C194.826 137.519 194.591 129.061 191.305 120.216C184.784 102.661 166.349 84.0015 132.303 79.6273L133.068 73.6762ZM180.993 160.743C172.633 161.802 163.432 158.909 155.054 153.703C146.634 148.469 138.76 140.73 132.987 131.603C121.418 113.315 118.057 88.915 136.531 68.0899L141.019 72.0716C124.809 90.3445 127.479 111.673 138.057 128.395C143.357 136.774 150.586 143.861 158.222 148.607C165.9 153.379 173.71 155.617 180.239 154.791L180.993 160.743ZM136.53 68.0902C145.964 57.4533 160.016 53.067 175.536 53.5282C191.051 53.9893 208.316 59.2822 224.76 68.3558C257.61 86.4813 287.926 120.124 294.711 162.31L288.787 163.263C282.366 123.339 253.53 91.0825 221.862 73.6092C206.047 64.8834 189.711 59.9521 175.357 59.5256C161.007 59.0991 148.921 63.1616 141.019 72.0713L136.53 68.0902ZM10.3802 142.538L16.0711 164.596L10.2613 166.095L4.57049 144.037L10.3802 142.538ZM13.1662 165.345C12.7931 162.369 12.7932 162.369 12.7934 162.369C12.7935 162.369 12.7938 162.369 12.7941 162.369C12.7947 162.368 12.7956 162.368 12.7967 162.368C12.799 162.368 12.8024 162.367 12.807 162.367C12.816 162.366 12.8293 162.364 12.8469 162.362C12.8821 162.358 12.9341 162.351 13.0021 162.343C13.138 162.326 13.3376 162.301 13.5931 162.269C14.104 162.206 14.8383 162.116 15.7332 162.007C17.5227 161.79 19.9567 161.5 22.5325 161.206C27.6007 160.629 33.4618 160.01 35.8749 159.96L36.0001 165.958C33.934 166.001 28.4095 166.576 23.2118 167.168C20.6547 167.459 18.2357 167.748 16.4555 167.964C15.5656 168.072 14.8358 168.161 14.3288 168.224C14.0753 168.255 13.8776 168.28 13.7434 168.297C13.6763 168.305 13.6251 168.311 13.5908 168.316C13.5736 168.318 13.5606 168.319 13.552 168.32C13.5477 168.321 13.5445 168.321 13.5424 168.322C13.5413 168.322 13.5405 168.322 13.54 168.322C13.5398 168.322 13.5396 168.322 13.5395 168.322C13.5394 168.322 13.5393 168.322 13.1662 165.345Z" fill="#A6EF10"/>
</svg>
